# xmcd CD database file
#
# Track frame offsets:
#	150
#	12017
#	25522
#	39642
#	58282
#	73962
#	90405
#	106050
#	120007
#	144792
#	165662
#	183780
#
# Disc length: 2757 seconds
#
# Revision: 0
# Processed by: cddbd v1.4PL0 Copyright (c) Steve Scherf et al.
# Submitted via: CDex 1.40Release
#
DISCID=880ac30c
DTITLE=Red Dirt Rangers - Ranger's Command
DYEAR=1900
DGENRE=Country
TTITLE0=Cold December Wind
TTITLE1=Nickels and Dimes
TTITLE2=Hey Whattaya Mean
TTITLE3=Cadillac Eight
TTITLE4=1999
TTITLE5=Times Have Changed
TTITLE6=Rainbow Rocker
TTITLE7=Steel Rail Blues
TTITLE8=Arizona State Line
TTITLE9=Neighbors
TTITLE10=Ranger's Command
TTITLE11=The Day The Mandolin Died
EXTD=ID3G: 2
EXTT0=
EXTT1=
EXTT2=
EXTT3=
EXTT4=
EXTT5=
EXTT6=
EXTT7=
EXTT8=
EXTT9=
EXTT10=
EXTT11=
PLAYORDER=
